<?xml version="1.0" standalone="no"?>
<!DOCTYPE svg PUBLIC "-//W3C//DTD SVG 1.1//EN" "http://www.w3.org/Graphics/SVG/1.1/DTD/svg11.dtd" >
<svg xmlns="http://www.w3.org/2000/svg">
<metadata>
Created by FontForge 20120731 at Thu Oct 27 11:06:08 2016
 By admin
</metadata>
<defs>
<font id="WeStar_iconfont" horiz-adv-x="1024" >
  <font-face 
    font-family="WeStar_iconfont"
    font-weight="500"
    font-stretch="normal"
    units-per-em="1024"
    panose-1="2 0 6 3 0 0 0 0 0 0"
    ascent="896"
    descent="-128"
    x-height="792"
    bbox="0 -212 1333.15 896.393"
    underline-thickness="50"
    underline-position="-100"
    unicode-range="U+0078-E632"
  />
<missing-glyph horiz-adv-x="374" 
d="M34 0v682h272v-682h-272zM68 34h204v614h-204v-614z" />
    <glyph glyph-name=".notdef" horiz-adv-x="374" 
d="M34 0v682h272v-682h-272zM68 34h204v614h-204v-614z" />
    <glyph glyph-name=".null" horiz-adv-x="0" 
 />
    <glyph glyph-name="nonmarkingreturn" horiz-adv-x="341" 
 />
    <glyph glyph-name="x" unicode="x" horiz-adv-x="1001" 
d="M281 543q-27 -1 -53 -1h-83q-18 0 -36.5 -6t-32.5 -18.5t-23 -32t-9 -45.5v-76h912v41q0 16 -0.5 30t-0.5 18q0 13 -5 29t-17 29.5t-31.5 22.5t-49.5 9h-133v-97h-438v97zM955 310v-52q0 -23 0.5 -52t0.5 -58t-10.5 -47.5t-26 -30t-33 -16t-31.5 -4.5q-14 -1 -29.5 -0.5
t-29.5 0.5h-32l-45 128h-439l-44 -128h-29h-34q-20 0 -45 1q-25 0 -41 9.5t-25.5 23t-13.5 29.5t-4 30v167h911zM163 247q-12 0 -21 -8.5t-9 -21.5t9 -21.5t21 -8.5q13 0 22 8.5t9 21.5t-9 21.5t-22 8.5zM316 123q-8 -26 -14 -48q-5 -19 -10.5 -37t-7.5 -25t-3 -15t1 -14.5
t9.5 -10.5t21.5 -4h37h67h81h80h64h36q23 0 34 12t2 38q-5 13 -9.5 30.5t-9.5 34.5q-5 19 -11 39h-368zM336 498v228q0 11 2.5 23t10 21.5t20.5 15.5t34 6h188q31 0 51.5 -14.5t20.5 -52.5v-227h-327z" />
    <glyph glyph-name="uniE600" unicode="&#xe600;" 
d="M512 -64q-185 0 -316.5 131.5t-131.5 316.5t131.5 316.5t316.5 131.5t316.5 -131.5t131.5 -316.5t-131.5 -316.5t-316.5 -131.5zM512 768q-104 0 -192.5 -51.5t-140 -140t-51.5 -192.5t51.5 -192.5t140 -140t192.5 -51.5t192.5 51.5t140 140t51.5 192.5t-51.5 192.5
t-140 140t-192.5 51.5zM727 502.5q-9 9.5 -22.5 9.5t-22.5 -9l-234 -236l-103 106q-9 9 -22.5 9.5t-23 -9t-9.5 -22.5t9 -23l126 -129h1v-1q1 -1 7 -4q0 -1 1 -1.5t2 -1.5q6 -2 12 -2t12 2q1 1 2 1.5t2 1.5q5 3 7 4v1l256 259q10 9 9.5 22t-9.5 22.5z" />
    <glyph glyph-name="uniE601" unicode="&#xe601;" horiz-adv-x="1040" 
d="M867 324q0 13 -12 18q-4 1 -8 1q-8 0 -14 -6l-39 -39q-6 -6 -6 -14v-156q0 -41 -29 -70t-70 -29h-512q-40 0 -69 29t-29 70v512q0 40 29 70q29 29 69 29h512q14 0 28 -4q4 -1 6 -1q8 0 14 6l30 30q7 7 6 18q-2 10 -11 14q-34 15 -73 15h-512q-73 0 -125 -52t-52 -125
v-512q0 -73 52 -125t125 -52h512q74 0 126 52t52 125v196v0zM1009 625q15 14 15 35q0 20 -15 35l-68 68q-15 14 -35 14t-35 -14l-398 -399l-162 162q-15 15 -35 15t-35 -15l-68 -68q-15 -14 -15 -35q0 -20 15 -35l265 -265q14 -14 35 -14q20 0 35 14z" />
    <glyph glyph-name="uniE602" unicode="&#xe602;" 
d="M891 332h-346v209h140v207h-342v-207h137v-209h-347v-53v-16v-207h-69v-203h206v203h-68v207h278v-207h-70v-203h206v203h-71v207h277v-207h-68v-203h206v203h-69v276z" />
    <glyph glyph-name="uniE603" unicode="&#xe603;" 
d="M512 -64q-185 0 -316.5 131.5t-131.5 316.5t131.5 316.5t316.5 131.5t316.5 -131.5t131.5 -316.5t-131.5 -316.5t-316.5 -131.5zM512 768q-104 0 -192.5 -51.5t-140 -140t-51.5 -192.5t51.5 -192.5t140 -140t192.5 -51.5t192.5 51.5t140 140t51.5 192.5t-51.5 192.5
t-140 140t-192.5 51.5zM557 383l138 136q10 10 10 23t-9.5 22.5t-22.5 9.5t-23 -9l-138 -137l-137 137q-9 9 -22 9t-22.5 -9t-9.5 -22.5t9 -22.5l136 -137l-137 -136q-9 -9 -9.5 -22.5t9 -23t22.5 -9.5q14 0 23 10l138 136l138 -140q10 -9 23 -9t22.5 9.5t9.5 22.5t-9 23z
" />
    <glyph glyph-name="uniE604" unicode="&#xe604;" 
d="M994 46l-4 6l-11 12q-12 14 -43 40q-44 37 -81 61l-50 32l-22 11q-17 8 -37 1q-16 -5 -24 -19l-18 -25q-3 -7 -7 -14q-4 -6 -13 -24.5t-15 -29.5q-8 -14 -22 -24.5t-32.5 -14t-38.5 7.5q-105 60 -177 128q-103 98 -139 178q-8 13 -1.5 38t27.5 35q14 7 36 15.5t32 14.5
q7 5 15 9.5t19 11.5q1 0 4.5 3.5t4.5 3.5q1 2 3 3q19 19 9 44l-3 8q-14 34 -37 72q-18 30 -43 63q-16 22 -33 38t-26 21l-10 5q-9 5 -13 7q-24 10 -51 -2q-17 -6 -32.5 -15.5t-22.5 -15t-27 -21.5q-46 -38 -72 -85t-20 -90q10 -74 91 -204.5t188.5 -233t245 -179
t215.5 -85.5q82 -11 175 75q40 37 57 75q7 14 8.5 30.5t-5.5 32.5z" />
    <glyph glyph-name="uniE605" unicode="&#xe605;" 
d="M770 222q-38 0 -71.5 -16.5t-55.5 -46.5l-249 125q7 21 7 43q0 25 -8 48l248 124q22 -31 56 -48.5t73 -17.5q65 0 111.5 46.5t46.5 112t-46.5 111.5t-112 46t-112 -46t-46.5 -112q0 -9 1 -18l-261 -131q-46 44 -109 44q-65 0 -111.5 -46.5t-46.5 -112t46.5 -112
t112 -46.5t111.5 47l259 -130q-2 -11 -2 -22q0 -65 46.5 -111.5t112 -46.5t112 46.5t46.5 112t-46.5 111.5t-111.5 46z" />
    <glyph glyph-name="uniE606" unicode="&#xe606;" 
d="M963 341q0 12 -9 21t-21 9h-46q-14 0 -27 9.5t-18 23.5l-23 57q-7 13 -4.5 29t12.5 26l32 33q9 8 9 20.5t-9 21.5l-55 55q-9 9 -21.5 9t-20.5 -9l-33 -32q-10 -10 -26 -12.5t-29 4.5l-58 23q-13 5 -23 18t-10 27v46q0 13 -8.5 21.5t-21.5 8.5h-78q-12 0 -21 -8.5
t-9 -21.5v-46q0 -14 -9.5 -27t-23.5 -18l-57 -23q-13 -7 -29 -4.5t-26 12.5l-33 32q-9 9 -21 9t-21 -9l-55 -55q-9 -9 -9 -21t9 -21l32 -33q10 -10 12.5 -26t-4.5 -29l-24 -58q-4 -13 -17 -22.5t-27 -9.5h-46q-13 0 -21.5 -9t-8.5 -21v-79q0 -12 8.5 -21t21.5 -9h46
q14 0 27 -9.5t17 -23.5l24 -57q7 -13 4.5 -29t-12.5 -26l-32 -33q-9 -8 -9 -20.5t9 -21.5l55 -55q9 -9 21 -9t21 9l33 32q10 10 26 12.5t29 -4.5l57 -24q14 -4 23.5 -17t9.5 -27v-46q0 -13 9 -21.5t21 -8.5h78q13 0 21.5 8.5t8.5 21.5v46q0 14 10 27t23 17l58 24
q13 7 29 4.5t26 -12.5l33 -32q8 -9 20.5 -9t21.5 9l55 55q9 9 9 21.5t-9 20.5l-32 33q-10 10 -12.5 26t4.5 29l23 57q5 14 18 23.5t27 9.5h46q13 0 21.5 9t8.5 21v79v0zM706 303q0 -80 -56.5 -136t-136 -56t-135.5 56t-56 135.5t56 136t135.5 56.5t136 -56.5t56.5 -135.5z
" />
    <glyph glyph-name="uniE607" unicode="&#xe607;" 
d="M64 359l448 347l448 -347v-142l-448 348l-448 -348v142zM848 230v-336h-224v224h-224v-224h-224v336l336 251z" />
    <glyph glyph-name="uniE608" unicode="&#xe608;" 
d="M955 21q3 9 3 17v496q0 7 -3 16l-291 -249zM512 240l77 63l38 31l293 251q-9 2 -15 2h-786q-7 0 -15 -2l293 -251l38 -31zM905 -15q6 0 14 2l-294 282l-113 -92l-114 92l-293 -282q8 -2 14 -2h786zM68 550q-2 -9 -2 -16v-496q0 -8 3 -17l291 279z" />
    <glyph glyph-name="uniE609" unicode="&#xe609;" 
d="M529 717q-121 0 -224 -49t-163 -133.5t-60 -184.5q0 -82 42.5 -156.5t119.5 -126.5q-7 -23 -18.5 -44.5t-17 -28.5t-8.5 -10q-25 -25 -15 -60q1 -3 2 -5q7 -17 22 -26.5t34 -9.5q121 0 233 102q27 -2 53 -2q121 0 224 49t163 133.5t60 184.5t-60 184.5t-163 133.5
t-224 49zM529 68q-30 0 -63 4q-21 2 -36 -12q-64 -64 -131 -84q27 50 35 106q3 27 -21 42q-69 40 -107 99.5t-38 126.5q0 77 48 142t131.5 102.5t181.5 37.5t181 -37.5t131.5 -102.5t48.5 -142t-48.5 -142t-131.5 -102.5t-181 -37.5zM734 440h-417v-60h330h87h7v60h-7z
M317 321v-60h417h1h5v60h-93h-330z" />
    <glyph glyph-name="uniE60A" unicode="&#xe60a;" 
d="M128 384h384v-384h43l341 768l-768 -342v-42z" />
    <glyph glyph-name="uniE60B" unicode="&#xe60b;" 
d="M512 876q-97 0 -178.5 -49.5t-128.5 -134.5t-47 -186q0 -57 38 -143.5t85 -160t108 -155t85 -110.5t38 -45q14 16 38 45t85 110.5t108 155t85 160t38 143.5q0 101 -47 186t-128.5 134.5t-178.5 49.5zM512 262q-98 0 -167 72.5t-69 175.5t69 173.5t167 70.5
q97 0 166.5 -71.5t69.5 -172.5q0 -104 -68 -176t-168 -72zM512 660q-59 0 -102.5 -46t-43.5 -108q0 -64 43 -109t103 -45q62 0 106 44.5t44 109.5q0 62 -44 108t-106 46zM512 660z" />
    <glyph glyph-name="uniE60C" unicode="&#xe60c;" 
d="M512 812q-139 0 -257 -68.5t-186.5 -186.5t-68.5 -257t68.5 -257t186.5 -186.5t257 -68.5t257 68.5t186.5 186.5t68.5 257t-68.5 257t-186.5 186.5t-257 68.5zM749 157q19 -20 19 -47t-19 -46.5t-49 -19.5q-25 0 -45 19l-144 145l-145 -145q-20 -19 -45.5 -19t-45 19.5
t-19.5 47t19 46.5l144 143l-143 143q-20 20 -20 47t19.5 46.5t47 19.5t46.5 -19l143 -144l144 144q19 19 46.5 19t46.5 -19t19 -46.5t-19 -46.5l-144 -143z" />
    <glyph glyph-name="uniE60D" unicode="&#xe60d;" 
d="M541 824l-1 1q1 -3 1 -5q1 3 0 4zM766 797l-6 4q-1 -1 -1 -3q1 0 3 -2q3 -2 4 1zM69 249l-1 1l-2 2q0 -1 2 -1q8 -2 9 -2q8 -3 4 -10q-1 2 -2 3q1 -1 1 -3q2 0 5 -1q-10 30 -16 60q-3 -1 -3 2q-1 0 -1 -1q-2 -2 -1 -5q-3 -2 -7 4v-1q-1 0 -2 -1l-1 -1v1q-4 -4 0 -8l-4 -2
q-3 -1 -4 -2v0q-3 -1 -4 -2q-1 -2 -2 -3q2 -7 4 -15q1 -1 1 -3h-1q6 -21 13 -41h1q-2 23 11 29zM58 216h1v-1v1h-1zM41 300q0 2 -6 6q1 -5 1 -9h4v1zM34 311q0 -2 1 -3q0 1 -1 3zM75 177v-2v2zM73 181v-1h1q-1 0 -1 1zM69 520h1q5 19 13 37q-2 5 -5 10q5 6 10 3q3 7 7 14
q-1 0 -2 2q-2 4 -5 0q-1 2 -0.5 6t-1.5 6q6 2 14 -1q1 0 1 1v-1q45 85 120 146q-4 1 -8 6q8 2 14 0v-1q3 3 7 6q-7 1 -14 8q1 2 4 2.5t4 0t-1 3.5q1 0 4.5 -6.5t8.5 -1.5l1 -1q44 32 95 53q2 2 2.5 5t3.5 5q-2 0 -3.5 0.5t-2.5 2.5t-3 3q1 4 4 7q-16 -7 -31 -14q-1 -5 3 -7
q-6 0 -9 -7t-1 -9q-2 -3 -4 -3t-6.5 1.5t-6.5 1.5v4q2 1 4.5 5t3 5t5.5 -1q0 3 3 6q-30 -15 -57 -34q5 2 7 0q-3 -4 -10 -1l-2 -2h2q3 -1 3 -3q-3 -1 -3 -4t-2 -5q-2 2 -2.5 4t0.5 4.5t1 3.5q-13 -10 -25 -20q-1 0 -3.5 -3t-3.5 -5q-1 1 -1 2q-12 -10 -22 -20l1 -1
q-4 -1 -2 -3.5t1 -3.5q-3 -3 -3 -1q-2 2 1 6h-1l-6 -6l1 -1q-2 -1 -3 0l-24 -26q4 -2 3 -5h-1q0 1 -1 2q-1 -1 -1 -2q-2 0 -3 1q-8 -9 -15 -19q5 -6 6 -7q-2 -2 -5 -2l-3 -1l2 -4q-2 -1 -6 -0.5t-4 -3.5v3v2q-46 -66 -69 -143q3 2 8 4.5t5 3.5q-1 -5 1 -8.5t7 1.5zM172 705
q1 0 -1 -1q1 0 1 1zM155 699h-1h1zM161 701q-3 -3 -8 -3q6 2 8 3zM102 637q1 0 2 -1q2 -1 3 -1v1q0 1 -1 2q4 1 4 -5l-1 -2q1 0 2 1q1 -2 1 -1q0 -2 -2 -2q0 -2 2 0q-1 -4 -3 0q-4 -1 -8 2q0 1 1 3t0 3zM346 823q0 -4 -2 -8q50 20 103 28q-1 0 -3 1t-3 0l2 4q2 5 0 5
q1 1 1.5 -0.5t2 -4t3.5 -3.5q-1 -2 -2 -2q33 5 66 5q28 0 55 -4q0 12 7 10q1 -1 -1 -2t-3.5 -2t2.5 -4q0 -1 -1 -2h-1q24 -3 47 -8q0 1 2 2q1 -1 1 -3q53 -13 101 -37q1 1 0 2q5 0 5 -5q27 -14 52 -32q5 2 5 -3q32 -23 60 -52q1 2 2 3q2 -1 2 -2.5t1 -2.5q2 3 0.5 5.5
t0.5 5.5l1 -2q3 1 4.5 0.5t3 0t2.5 3.5h1q-43 45 -96 78q3 -6 -1 -10q-2 2 -4 2t-3 -1t-2.5 -3.5t-2.5 -2.5l-2 2q-1 1 -1 2q13 5 3 18q-61 35 -129 51l-3 -3q0 2 -3 4q-10 3 -21 4q2 -4 5 -1q0 -2 -1 -2.5t-3 -1t-3 -1.5q-2 4 -3 4q1 1 2 1.5t1 1.5l-14 2v-3q-3 0 -5 4
q-31 4 -63 4q-40 0 -80 -7q1 -1 3 -2l5 -1q-6 -5 -10 -5q-2 2 -3 7q-47 -8 -91 -25q-4 -8 8 -12zM638 835q-1 -1 -4.5 1.5t-4.5 3.5q3 2 6.5 -0.5t2.5 -4.5zM563 859q0 -11 -2 -13q0 1 -3 5t-2 6q4 -4 7 2zM639 -70q7 4 7 7q-64 -19 -132 -19q-32 0 -64 4q0 -1 -2 -1.5
t-4 -0.5t-3 -1q0 1 0.5 2.5t0.5 2.5q-137 21 -240 114q-11 2 -15 -4q-2 -1 -2.5 2t-1.5 4q-4 -4 -3 -7q-1 0 -1.5 2.5t0.5 5.5t3 5q1 -1 1.5 -2.5t0.5 -2.5q3 3 1.5 5.5t0.5 4.5l1 -1h2q-52 51 -86 116q-1 -3 3 -7q-1 -1 -3 0q-2 -1 -2 -2q-1 2 -1.5 6t-2.5 7q-3 -2 -1.5 -6
t-1.5 -6q0 2 -2.5 5.5t-2.5 4.5q4 3 10 6q-15 29 -25 59h-2l-11 -25q2 -5 5 -11q3 0 6 -3q-2 -1 -4 -1q2 -6 4 -10v4q2 0 3 -2q1 0 2 2l2 2q3 -5 -2 -7q5 1 10 0q-1 -2 -9 -3q0 -2 1 -5.5t0 -5.5l8 -16q1 1 3.5 2.5t2.5 2.5q1 -1 2 -9q-4 -2 -4 3q-1 1 -3 -1l8 -14h3
q1 -1 -1 -2l4 -6l1 5q0 -3 -1 -7q43 -68 106.5 -119.5t140.5 -79.5q5 2 8 1l-2 -3q8 -3 15 -5v4q-1 3 -2 4q7 1 5 -9q8 -3 17 -5q1 0 1 1q1 -1 1 -1.5t1 -0.5q59 -15 121 -15q69 0 135 19q-5 1 -10 13zM423 -92q-7 7 -7 8q1 2 4 0q2 -1 3 -1q2 2 -2 3l-3 2q5 3 8 -4
q2 -7 -3 -8zM530 -101q-4 1 -3 4.5t4 7.5l4 -6q0 -1 -2 -2t-3 -2t0 -2zM99 592q0 1 -1 1q-1 -1 0 -3zM40 310q-1 3 -3 2q2 1 2.5 3t0.5 5t1 5q1 -2 4.5 -4.5t4.5 -6.5q1 3 4 4q-3 20 -4 40q-4 0 -6 -2q-2 5 5 11v16q0 66 18 128q-1 0 -10 3q-1 -3 -2.5 -4.5t-3.5 -3t-5 -4.5
q4 -1 5 -0.5t3.5 4t3.5 4.5q2 -3 0.5 -5.5t-6 -5t-5.5 -3.5q-3 1 -3 4v2q-1 -3 -2 -5l2 -2q-1 0 -2 -1q-7 -28 -10 -57q2 -1 4 2q2 -3 0 -4t-4 -1q-3 -25 -3 -51q0 -36 5 -71q2 1 6 -2zM47 421q1 -2 -1.5 -6t-1.5 -5q-7 0 -1 8q2 2 4 3zM958 188q41 93 41 195
q0 93 -33.5 177t-93.5 150q-4 0 -6 -1q-1 -2 2 -3q2 -1 3 -3q-1 0 -4 0.5t-5 0.5t-4.5 -1t-4.5 -3q53 -57 85 -128l2 6q1 1 3.5 -0.5t3.5 -0.5q0 -3 -0.5 -4t-3 -1t-4.5 -2q20 -46 30 -95q2 -1 3 -1q0 -1 -2 -3q5 -25 7 -51q1 5 6 6q3 -3 1 -5q2 -1 2 1q0 1 -1 2q2 1 4 -2
q1 1 2.5 1t2.5 1q-4 -4 -1 -11t0 -11q-3 5 -2.5 9.5t-2.5 8.5q-6 -3 0 -7q-1 -1 -6 6q-4 -2 -5 -3q1 -11 1 -21q1 -1 3 -2q2 1 2 2v-3q3 -3 7 -4q-3 -2 -6 -5q0 2 -2 5q-1 -6 -4 -10v-10q1 -2 0 -4q-2 -48 -13 -94q0 1 1 2q1 -1 1 -3q2 -5 6 0q2 -4 -1 -5.5t-5 2.5
q-1 -1 -2 -5t-4 -4q0 -1 -1 -3q1 0 2 -2l1 -1q0 6 6 5q1 -3 -0.5 -4t-4.5 -2t-5 -2l-1 -1q-13 -44 -35 -85q1 -1 1.5 -4t1.5 -3.5t4 1.5q1 -3 -0.5 -6t-1.5 -6q-2 3 -4 2q-2 1 -0.5 4t-0.5 4t-5 0q-25 -44 -59 -82q2 -2 2 -6t2 -7q-4 -1 -9 7q-12 -13 -25 -25q1 1 4 3.5
t4.5 3.5t4 0.5t5.5 -4.5l-3 -7q-3 -4 -8 -4t-9 -1q0 1 1.5 4t-1.5 4q-77 -71 -177 -102q1 -4 -4 -7q3 -3 6 -13q40 12 78 31q-2 0 -3 2q4 0 7 3q-1 1 -1 2q1 0 3 1q1 1 3 1q7 2 9 9q2 -6 2 -6.5t-6 -4.5q141 77 209 221q-1 0 -2 -1q-1 11 -2 12q2 1 9 0zM733 -45q-3 -2 -4 0
t-2 2q0 4 5 8q1 -1 -0.5 -4.5t1.5 -5.5zM818 11q-4 0 -3 7q0 5 5 4q3 -1 0.5 -5.5t-2.5 -5.5zM55 309q-1 3 -1 7q-3 -1 -5 -3v1q-7 -1 -9 -5q3 -2 2 -4q3 -2 7 1t6 3zM848 705v-1h2q-1 1 -2 1zM48 513q-1 0 -1 1q-1 -2 -1 -3zM68 513q0 2 1 4q-3 -2 -1 -4zM56 301q0 2 -1 5
q-2 -4 1 -5zM570 844h1q0 1 -1 0zM68 301q-1 8 -2 15q-2 2 -4 1q1 -8 3 -17q1 1 3 1zM957 272q12 49 13 100l-2 -2l-1 -1h-1q-2 -59 -19 -116q2 0 4 -3q1 6 3 11q-1 2 -2 3t1 3.5t1 3.5q2 1 3 1zM608 -64q0 2 3 5q-48 -11 -97 -11q-116 0 -218 56q-1 -2 -3 -3
q103 -57 221 -57q47 0 94 10zM948 240q-2 0 -3 1t-1 2q-48 -149 -179 -236q0 -2 -2 -3q1 -2 3 -1v-1q132 88 182 238zM408 827q-2 0 -4 -1q1 -1 1 -3q3 1 3 4zM514 840q-15 0 -30 -1q-1 -1 -3 -1q-33 -2 -66 -9q1 -1 4.5 -1.5t5.5 -0.5q44 9 89 9q9 0 18 -1q-1 2 -1 3
q2 -1 4 -3l26 -2q0 1 -1 2.5t-2 1.5q-22 3 -44 3zM121 158l-2 4q-3 0 -5 -1q1 -1 2 -3l3 -1q1 1 2 1zM81 236q11 -31 25 -59h1q3 1 3.5 -0.5t0.5 -4.5q0 -5 4 -3q-18 33 -30 67q-1 1 -4 0zM87 545q-17 -44 -24 -92q2 2 4 3q7 41 21 81q0 4 -1 8zM243 746q37 27 79 47
q1 2 0 4q-38 -17 -72 -42q0 -1 1 -2q-1 -1 -4 -2.5t-3.5 -2t-0.5 -2.5zM95 564h-1q1 -1 4 -3q7 17 15 33q-1 -1 -2 -1q-1 2 -1 3q-8 -14 -14 -29q-1 -2 -1 -3zM208 44q37 -34 82 -59q4 1 -2 5q1 0 2 -1q-99 57 -160 154v0l-4 6q-1 -3 -2 -3q31 -51 74 -93q2 0 5.5 -3t5.5 -2
q1 -3 0.5 -3.5t-1.5 -0.5zM92 558q-1 -3 -3 -7q2 -3 1 -6q0 -1 1 -1l6 14q-4 1 -5 0zM61 320q3 1 4 2q-2 20 -3 40q-6 -2 -2 -7h-2q1 -18 3 -35zM385 821l-8 -2q1 -1 1.5 -2t1.5 -2q2 1 5 2v4zM666 -44h-1h1zM408 823l10 2l-2 2l-2 2zM59 361q-1 1 -1 2v-3zM747 -10l-3 3
q-22 -13 -46 -24v0q-13 -5 -27 -10q1 -2 4 -2v-1q38 14 72 34zM66 452q-3 -2 -4 -3q-1 -3 -1 -5q2 1 4 -1q1 5 1 9zM395 820q1 1 3 1q1 2 -2 3h-1q-4 -1 -7 -2v-4q3 1 7 2zM562 835q2 -2 5 -1h1h-2v-1q14 -2 29 -5q-2 4 -4 2q-1 1 0 3q-13 2 -27 4zM57 383v-18q2 0 4 1v17
q0 28 4 56l-4 2q-4 -29 -4 -58zM764 1q-1 1 -2 4q-7 -5 -15 -10l1 -1l2 -2q7 4 14 9zM613 -59q1 -1 1 -2v-2q27 6 52 15l-2 4q-25 -9 -51 -15zM238 741l3 3l-2 2q-1 0 -1 -2v-3zM116 164q1 0 1 1q-1 1 -1 2q0 -2 -4 -2q1 0 1 -1v-1q2 0 3 1zM933 565h-1q-2 2 -2 6
q-29 62 -74 114q-2 0 -4 3h1q-105 117 -258 144q3 -2 6 -3q-1 -1 -3 1q-2 -1 -1 -2q19 -4 37 -9v1l1 -1q30 -8 59 -21h3q1 -1 1 -2q119 -53 193 -163t75 -245q1 0 3 -2q0 1 1 6q-1 90 -37 173zM118 155v0v0zM224 730l-3 3q-61 -51 -101 -118q1 0 2 -1l2 -1q40 67 100 117z
M239 748l1 -1v1h-1zM324 798q0 -2 2 -3q24 11 49 19q0 1 -1 4q-25 -8 -50 -20zM118 610q-2 -3 -5 -8q2 -3 1 -6q4 6 7 11zM233 743l-10 -8q3 -1 5 -2q3 4 7 7q1 3 -2 3zM226 254q-1 -2 -8 -2q-18 -2 -22 -7q-2 -3 0 -11q1 -7 -1 -12q1 -1 -26 -29l-11 -11q-11 -11 -9 -14
q1 -5 7 -5q4 0 6 -1q3 -5 4 -14q3 -7 7 -9h3q2 0 4 1q8 4 6 28q-1 8 18 31q0 -1 21 23q30 26 49 38q3 0 11 -2h9q8 3 11 8q3 12 -14 16q-3 1 -4 2q-1 0 -4 5q-1 5 -3 5q-9 2 -15 -5q-1 -1 -2 -1q-23 -22 -31 -29q-5 -6 -6 -5zM314 112q1 0 6 -4q9 -7 12 -7q6 0 14 7
q5 10 -2 15q-4 4 -6 7q-2 8 7 20q33 33 33 35q3 7 -11 15q-8 5 -12 9q-7 6 -16 14q-10 11 -13 16q-3 4 -5 10.5t-10 7.5q-14 -5 -41 -32q-8 -9 -13 -8q-6 -2 -11 1q-8 3 -14 1q-5 -7 -4 -10q9 -11 2 -30q-5 -7 -2 -9q4 -4 13 2q12 7 18 0q2 -8 -2 -14q-3 -3 -8 -9
q-6 -9 -9 -9q-12 -3 -15 3q0 8 2 16q0 5 -1 6q-4 4 -12 -1h-1q-2 -2 -15 -18l-2 -2q-2 -4 -4 -6q-3 -5 -2 -8q2 -3 7 -3q12 -2 21 -9q6 -7 17 -25q8 -11 13 -17q10 -14 19 -5q11 8 20 19q6 8 9 11q13 11 18 11zM273 111q-19 -11 -20 -5q-6 10 -2 19q3 3 13 15q3 2 6 5l4 5
l2 1q7 2 14 0q4 -1 6 1q1 -1 0 14q-1 1 3 7q3 4 3 6q1 7 -6 10q-4 1 -11 -3q-7 -3 -11 4q-2 12 6 19l3 1q5 3 11 10q9 3 14 2q5 -4 -2 -17q-6 -7 -4 -11q3 -5 19 1q6 3 16 2l1 1q4 -8 3 -17q-4 -12 -19 -24q-9 -6 -18 -6q-5 0 -7 -1q-1 -3 -1 -10q0 -3 -1 -4q-8 -17 -22 -25
zM453 402q-3 9 -10 9q-9 -4 -8 -12q5 -27 -5 -37q-7 -7 -1 -10q9 -7 -5 -44q-4 -10 -8 -11q-8 -10 8 -16q15 -1 22 18q10 28 11 57q2 17 -4 46zM310 350q-3 -5 2 -13l1 -2q6 -18 -4 -28q-5 -5 3 -11q9 -11 16 1q8 10 21 10q7 -1 6 6q-2 11 7 19q5 3 2 11q-5 10 -16 5
q-14 -9 -23 -1q-1 0 -2 1q-8 7 -13 2zM397 326q4 0 11 5q8 6 12.5 12t2.5 9t-10 1q-10 -3 -16 6q-4 3 -7 1q-3 -1 -4 -7q-4 -32 11 -27zM457 244q10 -7 18 5q5 8 11 23q8 19 19 31q12 11 32 13q8 0 13 8q3 6 -10 11q-4 0 -13 -1q-4 0 -9 1q-12 -1 -15 13q-3 8 -2 24
q-2 12 -13 14q-10 -3 -10 -13q4 -36 -2 -63q-8 -38 -23 -54q-6 -8 4 -12zM369 406q0 -11 -4 -17q-7 -10 -16 -18q-6 -10 3 -15q7 -4 15 3q11 12 16.5 9t6.5 4q5 14 15 26q7 6 22 21l5 5l4 4q8 7 0 15q-7 8 -16 -2q-2 -1 -7 -6l-8 -8q-10 -10 -24 -11q-8 -1 -11 -3
q-2 -2 -1 -7zM378 221q8 -5 14 5q2 3 2 10q0 4 1 6q0 4 2.5 4t6.5 -4q7 -9 13 -17q6 -6 11 -9q9 -8 15 -1q7 9 0 16q-24 24 -38 37q-8 10 -4 20q10 13 -3 17q-6 0 -17 -1q-9 -1 -14 0q-6 0 -8 -1q-1 -3 0 -8q9 -20 12 -29q3 -20 -2 -34q-1 -7 9 -11zM686 459q12 11 16 20
q-2 19 -20 10q-2 -3 -11 -13q-11 -14 -20 -23q-29 -29 -54 -48q-4 -7 3 -8q28 -1 69 45q2 1 5.5 5t6.5 6.5t5 5.5zM595 392q4 4 -2 6t-17 4q-4 0 -5 2q-8 1 -22 13q-5 3 -8 1q-1 -3 1 -10q2 -3 12 -17v-1q1 0 1 -1q5 -10 5 -14q-2 -20 1 -26q12 -8 21 4q-1 3 -1 9t1 8
q1 8 13 22zM495 413q8 -9 15 -1q16 18 18 14q5 -2 7 -1q5 10 -2 31q-5 3 -12 -2q-7 -3 -25 -21q-8 -10 -1 -20zM490 485q-8 1 -22 3q-16 2 -19 -10q-2 -12 12 -14q7 0 25 -5h4q11 -5 15 10q0 10 -15 16zM491 519q-4 -8 1 -14q10 -9 18 2q6 7 15 17t20 21q8 6 13 2
q5 -11 -4 -16l-3 -2q-11 -3 -17 -5q-6 -4 -7 -9q-1 -4 5 -6q6 -4 3 -7q-3 -7 -14 -17q-2 -3 -1 -7q2 -4 5 -4q7 0 16 -2q7 -7 17 -19q15 -21 26 -36q6 -9 15 -2q9 8 1 18q-13 13 -3 24q10 10 19 0q13 -19 23 -4q9 3 -10 20q-4 7 3 19q7 9 14 8q1 -1 -1 -6l-4 -2
q-4 -10 7 -16q15 -2 24 12q3 7 -5 19q-15 15 -51 45q-3 3 -4 9q-3 10 -13 4l-12 -12q-7 0 -9 6q-2 8 1 22q2 11 -4 15q-5 2 -16 -7q-47 -48 -68 -70zM615 516q6 4 10 3q3 -4 0 -11q-10 -16 -20 -11q-3 6 10 19zM594 538q10 2 13 -2q2 -11 -10 -19q-5 -3 -14 1q-4 8 11 20z
M574 502q4 -6 0 -13q0 -8 7 -6q6 3 11 0q3 -8 -5 -15q-8 -8 -14 -4q-4 3 0 10q3 4 0 7q-2 2 -6 2q-10 -4 -14 1q-3 6 5 16q9 7 16 2zM694 632q10 -3 22 -9q4 -4 7 -4q12 -5 17 4q6 11 -9.5 19t-28.5 10q-9 0 -14 -7q-4 -9 6 -13zM740 536q4 5 3 8q-1 4 -12 5l-2 1
q-8 1 -16 8q-5 4 -12 10q-12 7 -15 4q-5 -4 8 -23q1 -1 2 -1q14 -20 13 -30q1 -6 1 -10q3 -13 11 -13q9 2 13 13q0 16 4 24zM643 567q8 -9 13 -2q4 2 6 4q3 4 6 5h7q6 -1 8 2q4 6 1 18q-2 4 -2 8q-1 5 -3 7q-7 5 -27 -15q-20 -19 -9 -27zM770 686q-21 10 -25 9q-4 -3 8 -16
q1 0 2 -1q0 -1 1 -1q7 -9 24 -27q14 -21 -16 -26q-10 -4 -9 -13q3 -12 17 -10q53 15 34 52q-12 19 -36 33zM765 569q-23 -21 -18 -22q10 -5 38 15q18 15 33 28.5t30 31.5q9 11 0 18q-8 7 -16 -1q-4 -6 -8 -11q-19 -25 -59 -59zM674 676q-13 -15 -13 -14q-13 -13 -6 -22
q9 -9 21 6l2 2l4 4q8 10 32 36q5 4 19 7q7 1 8 3q1 1 2 5q0 10 6 16q7 8 0 15q-7 5 -10 1q-4 -2 -7 -1q-12 -3 -16 7q-1 2 -1 3q-4 4 -9 0q-8 -3 -4 -16q1 -8 1 -13q1 -8 -15 -24zM638 637q-13 3 -25 2t-15 -9q-2 -12 14 -14q21 -5 22 -4q14 -1 17 10q2 10 -13 15z" />
    <glyph glyph-name="uniE60E" unicode="&#xe60e;" 
d="M112 622q2 -4 3 0q-2 -1 -2 0q2 1 1 3q-1 -1 -2 -1q1 1 1 2q0 2 -0.5 4t-3.5 2q1 -2 1 -3v-1q-1 0 -3 2q-1 1 -2 1q1 -2 0 -4l-1 -2q4 -4 8 -3zM47 402q-1 2 1.5 6t0.5 6q-7 -4 -5 -10q1 -2 3 -2zM565 840q3 2 2 13q-3 -7 -7 -2q-1 -2 2 -6t3 -5zM158 693h-1h1zM643 828
q0 3 -3 5.5t-6 0.5q1 -1 4 -3.5t5 -2.5zM571 827q1 1 2 1q-1 0 -2 -1zM164 695q-2 -2 -8 -4q6 0 8 4zM176 699q-1 -1 -1 -2q1 1 1 2zM732 -52q1 0 2 -2t4 0q-3 2 -1.5 5.5t0.5 5.5q-5 -5 -5 -9zM422 -89q-1 -2 2 -2q5 0 3 -3q-1 0 -3 1q-3 2 -4 0q0 -1 7 -8q8 1 2 10
q-3 4 -7 2zM535 -110q-1 1 -0.5 2t2.5 2t3 2q-5 5 -5 6q-3 -4 -4 -7.5t4 -4.5zM824 3q0 1 2 5t-1 5q-4 1 -5 -3q0 -6 4 -7zM545 818h-1l2 -4q0 3 -1 4zM772 790q-5 3 -7 4v-3l2 -1q3 -2 5 0zM72 241l-1 1l-2 2q0 -1 2 -1q8 -2 9 -2q8 -3 4 -10q-1 2 -2 3q1 -2 1 -3q2 0 5 -1
q-10 30 -16 61q-3 -2 -3 1h-1q-2 -3 -1 -5q-3 -2 -7 3l-3 -3q-1 0 0 1q-4 -4 0 -8l-3 -2q-4 -1 -5 -2h-1q-2 -1 -3 -2q-1 -2 -2 -3q2 -7 3 -15q2 -1 2 -3h-1q6 -21 13 -41h1q-2 23 11 29zM61 208h1v-1v1h-1zM44 292q0 2 -6 6q1 -5 1 -9h4l1 1v2zM37 304v-4q1 1 0 4zM78 168
v-1v1v0zM76 173v-1h1q-1 0 -1 1zM72 513q6 19 14 37q-2 5 -5 10q5 6 10 3q3 7 7 14q-1 0 -2 2q-2 4 -6 0q0 2 0.5 6t-1.5 6q6 2 14 -1l1 1v-1q45 86 120 147q-3 1 -8 6q8 2 14 0v-1q3 2 7 5q-7 2 -13 8q1 3 3.5 3.5t3.5 0t-1 2.5q2 0 5 -6t9 -1v-2q45 33 96 54q2 2 2.5 5
t3.5 5q-3 0 -4 0.5t-2.5 2.5t-3.5 3q1 4 5 7q-16 -7 -31 -14q-1 -5 2 -8q-6 1 -8.5 -6t-0.5 -10q-2 -3 -4 -2.5t-6.5 2t-6.5 1.5l-1 4q3 1 5 5t3 4.5t6 -0.5q-1 3 2 6q-29 -15 -57 -34q5 2 8 0q-4 -4 -10 -1l-2 -2h2q3 -1 3 -3q-3 -1 -3.5 -4.5t-2.5 -4.5q-2 2 -2 3.5t1 4
t1 3.5q-13 -9 -26 -19q0 -1 -3 -3.5t-4 -4.5q0 1 -1 2l-22 -20q0 -1 1 -1q-4 -1 -1.5 -4t0.5 -4q-3 -2 -3 -1q-1 3 1 6q0 1 -1 1l-6 -6l1 -2q-2 -1 -3 0q-12 -12 -23 -25q3 -3 3 -6h-2q0 1 -1 2q-1 0 -1 -1h-3q-8 -9 -15 -18q5 -7 6 -7q-1 -3 -4 -4h-4l2 -3q-2 -2 -5.5 -1
t-4.5 -4v3v2q-46 -66 -69 -143q2 2 7.5 4.5t5.5 3.5q-1 -5 1 -8.5t7 1.5zM176 699q0 -1 -1 -2q0 1 1 2zM158 693h-1h1zM164 695q-2 -4 -8 -4q6 2 8 4zM105 631q1 0 2 -2q2 -1 3 -1v1q0 1 -1 3q5 0 4 -6q0 -1 -1 -2q1 0 2 2q1 -3 1 -2q0 -1 -2 -2q0 -1 2 0q-1 -4 -3 0
q-4 -1 -8 3l1 2q1 2 0 4zM350 817q0 -4 -2 -8q50 20 103 28q-1 0 -2.5 0.5t-3.5 0.5l2 4q2 5 0 5q1 1 1.5 -0.5t2 -4t3.5 -3.5q-1 -2 -2 -2q33 5 66 5q28 0 56 -4q-1 12 6 10q1 -1 -1 -2t-3 -2t3 -4l-2 -2q23 -3 47 -8q0 1 2 2q1 -1 1 -3q53 -13 102 -38q0 2 -1 3q5 0 5 -5
q27 -14 52 -32q5 2 5 -3q33 -24 61 -52q1 2 2 3q1 -1 1 -3t1 -2q3 2 1.5 4.5t0.5 5.5l1 -1h4q1 0 2.5 0.5t2.5 2.5h2q-44 46 -97 78q4 -5 -1 -9q-2 2 -4 2t-3 -1t-2.5 -3.5t-2.5 -3.5q-2 2 -3 4q13 6 3 19q-61 35 -129 51l-3 -3q-1 2 -3 4q-11 3 -21 4q1 -4 4 -1
q1 -2 0 -2.5t-3 -1t-3 -1.5q-2 3 -3 4q0 1 1 2t2 1q-8 1 -15 2q0 -2 1 -3q-3 0 -5 4q-32 4 -64 4q-40 0 -79 -7q0 -1 2 -2l5 -1q-6 -5 -9 -5q-3 2 -4 7q-47 -8 -91 -25q-4 -8 8 -12zM643 828q-2 0 -5 2.5t-4 3.5q3 2 6 -0.5t3 -5.5zM567 853q1 -11 -2 -13q0 1 -3 5t-2 6
q0 2 1 0q3 -4 6 2zM644 -79q7 4 7 7q-65 -19 -133 -19q-32 0 -63 4q-1 -1 -3 -1.5t-4 -0.5t-2 -1q-1 1 -0.5 2.5t0.5 2.5q-137 21 -240 115q-12 1 -15 -4q-3 -1 -3 2t-2 3q-3 -3 -2 -7q-2 0 -2.5 3t1 6t2.5 4q2 -1 2 -2.5t1 -2.5q2 3 0.5 5.5t0.5 5.5l1 -2q1 1 3 1
q-53 51 -87 115q-1 -2 3 -6q-1 -1 -3 0l-1 -1l-1 -1q-1 2 -1.5 6t-2.5 7q-3 -2 -1.5 -6.5t-1.5 -5.5q0 1 -2.5 4.5t-2.5 5.5l10 5q-15 29 -25 60h-2l-11 -25q2 -5 5 -11q3 0 6 -4q-2 0 -4 -1l4 -10v5q2 0 3 -2q0 -1 2 2l2 2q3 -5 -2 -8q5 2 10 1q-1 -2 -9 -4q0 -1 1 -4.5
t0 -5.5l8 -16q1 1 3.5 2.5t2.5 2.5q1 -1 2 -10q-4 -2 -4 3q-1 1 -3 0l8 -14q2 -1 3 -1q1 -1 -1 -1q2 -4 4 -7l1 6q0 -4 -1 -7q44 -69 107.5 -120.5t140.5 -79.5q4 2 8 1l-2 -3q8 -3 15 -5v3q-1 4 -2 5q7 1 5 -9q8 -3 17 -5q1 0 1 1q1 -1 1 -1.5t1 -0.5q59 -15 121 -15
q70 0 136 19q-5 1 -10 13zM427 -101q-7 7 -7 8q1 2 4 0q2 -1 3 -1q2 2 -2 3l-3 2q5 3 8 -4t-3 -8zM535 -110q-5 1 -4 4.5t4 7.5q3 -3 5 -6q-1 -1 -3 -2t-2.5 -2t0.5 -2zM102 586h-1q-1 -1 0 -3q0 1 1 2v1zM43 302q-1 3 -3 3q1 0 2 2t1 5v5q2 -2 5 -4.5t4 -5.5q2 2 4 3
q-2 20 -3 40q-4 1 -6 -2q-2 6 5 11v16q0 66 18 129q-1 0 -10 3q-1 -3 -2.5 -4.5t-4 -3t-4.5 -4.5q4 -1 5 -0.5t3.5 4t3.5 4.5q2 -3 0.5 -5.5t-6 -5t-5.5 -3.5q-3 1 -3 3t-1 3q0 -2 -1 -5q1 -1 1 -2l-2 -2q-6 -28 -9 -56q2 -1 4 2q2 -3 0 -4.5t-5 -0.5q-2 -26 -2 -52
q0 -35 5 -71q2 1 6 -2zM49 414q2 -2 -0.5 -6t-1.5 -6q-7 0 -1 9zM964 180q41 93 41 195q0 93 -33.5 177.5t-94.5 150.5q-4 1 -5 -1q-2 -1 2 -2q2 -1 2 -3h-4q-3 0 -5 0.5t-4.5 -0.5t-3.5 -3q53 -57 85 -129l2 6q1 1 3 -0.5t4 -0.5q0 -3 -1 -3.5t-3.5 -1t-3.5 -1.5
q20 -47 30 -96q2 -1 3 -1q0 -1 -2 -3q5 -25 7 -51q1 5 6 6q3 -3 1 -5q2 -1 2 0t-1 3q2 1 4 -2q1 0 3 1h1q-3 -3 0 -10t-1 -11q-2 4 -2 8.5t-2 8.5q-6 -2 0 -6q-2 -1 -7 6q-3 -2 -4 -4q1 -10 1 -21q1 0 3 -1q1 0 2 1v-3q3 -2 7 -3q-2 -2 -6 -5l-2 4q-1 -6 -4 -10v-10
q1 -2 0 -4q-2 -47 -13 -93l1 1q0 -1 1 -3q2 -4 6 0q2 -3 -1 -5t-5 2q-1 -1 -2 -5t-4 -4l-1 -2v-1l1 -2q1 -1 2 -1q0 6 6 5q0 -3 -1 -4t-4 -1.5t-5 -2.5q-1 0 -1 -1q-13 -44 -36 -85q2 -1 2.5 -4.5t1 -3.5t4.5 2q0 -3 -1 -6l-2 -6q-1 2 -3 2q-3 1 -1 4t0 4h-5
q-25 -45 -60 -83q3 -2 2.5 -6t1.5 -6q-4 -1 -9 7q-12 -13 -25 -25q2 1 4.5 3t4 3t4 0.5t5.5 -4.5l-3 -7q-3 -4 -8 -4t-8 -1q-1 1 1 4t-1 4q-78 -71 -179 -102q2 -4 -3 -7q3 -3 5 -13q41 12 79 31q-2 1 -3 2q5 0 7 3q-1 1 -1 2q1 0 3 1q1 1 3 1q8 2 9 9q2 -6 2 -6.5t-6 -4.5
q141 77 210 222q-1 -1 -2 -1q-1 11 -2 12h9zM738 -54q-3 -2 -4 0t-2 2q0 4 5 9q1 -2 -0.5 -5.5t1.5 -5.5zM824 3q-5 -1 -4 6q1 6 5 4q3 -1 1 -5t-2 -5zM58 301q-1 4 -1 7q-3 -1 -5 -2v0q-7 -1 -9 -5q2 -2 1 -4q4 -2 8 1t6 3zM854 699q0 -1 0.5 -1t0.5 -1q0 1 -1 2zM51 506
q-1 0 -1 1q0 -1 -1 -3zM71 506l1 2v2q-3 -3 -1 -4zM59 293q0 1 -1 5q-2 -4 1 -5zM574 838h2q-1 1 -2 0zM71 294q-1 7 -2 15q-2 1 -4 1l2 -18zM962 264q13 49 14 100q-1 0 -2 -1l-2 -2v1q-2 -60 -19 -117q2 0 3 -3q2 6 4 11q-1 2 -3 3q0 1 2 3.5t1 3.5zM612 -73q0 2 4 5
q-48 -11 -98 -11q-116 0 -218 56q-1 -2 -3 -3q103 -57 221 -57q48 0 94 10zM953 232q-3 0 -3 3q-49 -149 -179 -237q-1 -2 -3 -2q1 -3 3 -2q133 88 182 238zM408 820q1 -1 1 -3q3 1 3 4q-2 0 -4 -1zM518 833h-30q-1 -1 -3 -1q-33 -2 -66 -9q1 -1 4.5 -1.5t5.5 -0.5
q44 8 89 8h18q0 2 -1 3q2 -2 4 -3q14 -1 27 -2q0 1 -2 3l-1 1q-23 2 -45 2zM124 150l-2 4q-3 -1 -4 -1v-1l1 -2q3 -1 4 -1zM84 228q11 -31 25 -60l1 1q3 0 3.5 -1t0.5 -4q0 -5 4 -3q-18 33 -30 67q-1 1 -4 0zM90 538q-17 -45 -25 -92q3 2 5 3q7 41 21 81q0 4 -1 8zM247 739
q37 28 79 48q1 2 0 4q-38 -18 -73 -42q1 -2 2 -3q-1 -1 -4.5 -2t-3.5 -2v-3zM98 557h-1q1 -1 4 -3q7 17 15 33q0 -1 -2 -1q-1 2 -1 3q-8 -14 -14 -29q-1 -2 -1 -3zM211 36q38 -35 82 -60q5 1 -1 5h2q-100 56 -161 154v0l-3 6q-2 -3 -3 -4q31 -51 74 -92q3 -1 6 -3.5t6 -1.5
q1 -3 0.5 -4t-2.5 0zM95 551q-1 -3 -3 -7q2 -3 1 -6q0 -1 1 -1q2 7 6 14q-4 1 -5 0zM64 313q2 0 4 1q-3 20 -4 41q-5 -3 -1 -8h-2q1 -17 3 -34zM389 815l-8 -2q1 -1 1.5 -2t1.5 -2q4 1 5 2v4zM670 -52v-1v1zM412 817l10 2l-2 2l-2 2zM62 353l-2 2q1 -2 1 -3q0 1 1 1z
M752 -18q-2 1 -3 2q-22 -13 -46 -23l-1 -1q-12 -5 -26 -10q1 -2 4 -2v-1q37 14 72 35zM69 444q-3 -1 -4 -3t-1 -4q2 1 4 -1q1 4 1 8zM399 813q1 1 3 2q1 2 -2 2l-1 1q-3 -1 -7 -2v-4q4 1 7 1zM567 829q2 -2 4 -2q1 1 2 1q-1 0 -2 -1l-1 -1q15 -1 29 -4q-1 4 -4 2q0 1 1 3
l-28 4q0 -1 -1 -2zM60 375v-17h4v17q0 28 3 56l-3 3q-4 -29 -4 -59zM769 -8q-1 1 -2 4q-7 -5 -15 -10l1 -1l2 -2q7 5 14 9zM671 -56l-1 1l-2 2q-25 -9 -50 -15q0 -1 0.5 -2t0.5 -2q27 6 52 16zM241 735q2 1 4 3q-2 0 -3 2zM120 155v1v2h-1q0 -2 -3 -1q0 -1 1 -2h3zM938 558
q-2 2 -3 6q-28 63 -74 114q-2 1 -4 3l1 1q-105 117 -258 144l6 -4q-1 0 -4 2q-1 -1 0 -2q18 -4 37 -9v0q31 -8 60 -21q2 -1 3 0q1 -1 1 -2q120 -53 194 -163.5t75 -245.5l2 -2q1 1 2 5q-2 91 -38 174zM121 147v0v0zM227 724q-1 1 -3 2q-60 -50 -100 -118h2l1 -1
q40 67 100 117zM243 741q1 0 1 1zM379 808q0 1 -1 4q-26 -9 -50 -20q0 -2 2 -3q24 11 49 19zM121 604q-2 -4 -5 -8q2 -4 1 -7q4 6 7 12q-2 1 -3 3zM237 737l-10 -8q3 -2 4 -2l8 6q0 3 -2 4zM345 144q2 5 -10 12q-6 4 -10 7q-6 5 -13 12q-8 9 -11 13q-2 3 -3.5 8.5t-8.5 6.5
q-12 -4 -34 -26q-7 -8 -11 -7q-4 -2 -9 1q-6 2 -12 1q-4 -6 -2 -9q7 -9 1 -24q-4 -7 -2 -8q3 -3 11 2q10 6 15 0q2 -7 -2 -12q-2 -2 -6 -7q-6 -8 -8 -8q-10 -2 -12 3q0 6 1 13q1 4 0 5q-4 3 -10 -1h-1q-2 -1 -13 -15l-1 -1q-2 -4 -3 -5q-3 -5 -2 -7t6 -3q9 -1 17 -7
q5 -6 14 -21q6 -9 11 -14q8 -11 16 -4q9 7 16 16q5 7 7 9q11 9 15 9q1 0 5 -3q8 -6 10 -6q5 0 12 6q4 8 -2 12q-3 3 -5 6q-1 7 6 16q27 28 28 30zM314 140q-4 -10 -16 -19q-7 -6 -15 -6q-4 1 -6 -1q-1 -2 -1 -8v-3q-7 -14 -19 -21q-15 -9 -16 -4q-5 8 -2 16q3 2 11 12
q3 2 5 4.5t3 3.5l2 2q6 1 11 -1q4 0 5 1q2 0 0 12l3 5q3 4 2 6q2 5 -4 8q-4 1 -10 -2q-5 -3 -8 2q-2 10 5 16l1 1q5 2 10 8q8 3 12 2q4 -3 -2 -14q-5 -6 -3 -9q2 -5 15 1q5 2 13 1l1 1q4 -6 3 -14zM219 200q-1 -1 -7 -1q-15 -2 -18 -6q-2 -3 0 -9q1 -6 -1 -10q1 -1 -22 -24
l-9 -9q-9 -9 -7 -12q1 -4 6 -4q3 0 4 -1q3 -4 4 -11q3 -9 8 -8q11 1 9 24q-2 7 14 26l18 19q24 22 41 31q2 0 8 -1h8q6 2 9 7q3 9 -12 13q-2 0 -3 1q-1 0 -4 5q0 3 -2 4q-7 1 -12 -4q-1 -1 -2 -1q-19 -18 -25 -24zM398 331q-7 -4 -6 -10q4 -22 -5 -31q-6 -6 0 -9
q7 -5 -4 -36q-4 -8 -8 -9q-5 -8 8 -13q12 -1 18 15q8 23 9 47q1 14 -3 38q-3 7 -9 8zM331 265q4 3 1 9q-3 9 -12 4q-12 -7 -19 -1q-1 0 -2 1q-7 6 -11 2q-2 -4 1 -11l1 -2q5 -14 -3 -22q-4 -5 3 -10q7 -9 13 1q7 9 17 8l1 1q6 -1 5 5q-2 8 5 15zM344 173q7 -4 12 4q2 3 2 9
v4q1 4 3 4t5 -3q6 -8 11 -14q5 -5 9 -8q7 -6 12 -1q6 7 0 14q-19 20 -31 30q-7 9 -3 17q8 11 -3 14q-5 0 -14 -1q-7 -1 -12 0q-5 0 -6 -1q-1 -2 0 -7q7 -16 9 -23q3 -17 -1 -29q-1 -5 7 -9zM410 192q8 -5 15 4q4 7 9 19q7 17 16 26q10 10 26 11q7 0 11 6q2 6 -8 10
q-4 -1 -11 -1h-7q-10 0 -13 11q-3 7 -2 21q-2 9 -10 11q-9 -3 -9 -11q3 -30 -2 -52q-6 -31 -19 -45q-5 -7 4 -10zM360 260q4 0 10 4q5 5 9 10t2.5 7.5t-7.5 1.5q-9 -3 -14 4q-3 3 -6 2q-2 -1 -3 -6q-2 -14 0.5 -19.5t8.5 -3.5zM321 298q-6 -9 2 -13q6 -4 12 2
q10 10 14.5 7.5t4.5 3.5q4 12 13 22l4 4l7 6q3 4 7 7l7 7q7 7 1 13q-6 7 -14 -1l-12 -13q-8 -7 -20 -8q-7 -1 -9 -3q-2 -1 -1 -6q0 -9 -4 -14q-5 -8 -12 -14zM416 375q5 -4 12 2l17 16q8 9 10 12q8 6 15 4q6 -1 6 4q-1 11 1 15l2 1l32 32q9 8 1 14q-6 5 -12 0
q-6 -6 -11.5 -12t-11 -11t-7.5 -7q-7 -7 -20 -2q-6 -1 -7 -8q4 -13 -4 -21q-6 -7 -23 -25q-7 -7 0 -14zM599 382q5 4 5 12q-2 10 -10 10q-9 -2 -8 -6q-14 -3 -45 -3q-7 -2 -10 -5q2 -5 14 -9q31 -10 54 1zM512 356q3 2 6 -1q6 -6 16 -17l1 -1q10 -16 20 -14q11 8 3 20
q-2 1 -7 6q-29 28 -30 31q-3 6 5 8q2 2 1 5q-12 8 -3 17q4 4 18 17q9 8 12 13q3 13 -12 13l-1 -1l-1 -1l-1 -1l-1 -1l-2 -1v-1l-1 -1l-1 -1l-1 -1l-1 -1l-1 -1h-1l-1 -1l-1 -1l-1 -2l-30 -30q-1 -2 -12 -1h-3q-4 0 -4 -5q1 -11 0 -15q-1 -2 -11 -12l-28 -28q-3 -16 10 -13
q5 1 18 16q2 2 7 8l7 7q5 4 8 0q8 -28 -3 -62q-5 -4 -4 -9q5 -9 14 -8q10 2 14 23q1 8 0 43q0 3 2 4zM709 535q-13 13 -42 37q-3 3 -4 8q-3 8 -11 3l-10 -10q-5 0 -7 6q-1 6 1 18q2 8 -3 11t-14 -5q-39 -40 -56 -58q-3 -6 1 -12q8 -7 15 2q5 6 12 14q8 8 17 18q6 4 11 1
q4 -8 -3 -13q-1 0 -3 -1q-9 -3 -14 -5q-5 -3 -6 -7q-1 -3 4 -5q5 -4 3 -6q-3 -6 -12 -14q-2 -3 -1 -6q2 -3 5 -3q5 0 12 -2q7 -6 15 -16q12 -17 21 -30q5 -7 12 -1q8 7 2 15q-11 11 -3 20q8 8 16 0q11 -16 19 -3q7 2 -9 16q-3 6 3 16q5 7 11 6q1 -1 -1 -5q-1 0 -3 -2
q-3 -8 6 -12q12 -2 20 9q3 6 -4 16zM642 503q-6 -7 -11 -4q-3 3 0 9q2 3 0 6q-1 2 -5 1q-9 -3 -11 1q-3 5 3 14q8 5 14 1q3 -5 0 -11q0 -6 6 -4q4 2 9 -1q2 -6 -5 -12zM651 543q-5 -2 -12 1q-3 7 9 17q9 1 12 -2q1 -9 -9 -16zM674 536q-8 -14 -16 -9q-3 5 8 16q5 3 8 2
q2 -4 0 -9zM588 491q-6 -2 -20 -17q-8 -8 -1 -17q6 -7 12 0q13 14 15 11q4 -2 5 0q5 8 -1 25q-4 2 -10 -2zM529 511q-2 -10 9 -12q6 0 21 -3q1 -1 3 -1q10 -3 12 8q1 9 -12 14q-8 1 -18 2q-13 2 -15 -8zM620 426q-2 -17 1 -21q10 -7 18 3q-1 2 -1 7t1 7q1 7 10 18q3 3 -2 5
q-4 2 -13 3q-4 1 -5 2q-7 1 -18 11q-4 2 -6 0t1 -8q1 -2 9 -14q1 -1 2 -1q3 -9 3 -12zM711 481l1 1l1 1l1 1l1 1l1 1l2 2l1 1l1 1l1 1l1 1l1 1l2 2q9 10 13 17q-2 16 -16 8q-3 -2 -10 -11q-9 -11 -17 -19q-23 -23 -44 -39q-4 -6 2 -7q24 -1 58 37zM684 643q-10 2 -20 2
q-10 -1 -12 -8q-2 -10 11 -11q18 -4 19 -4q11 -1 14 8q1 9 -12 13zM790 586q-20 -17 -15 -18q9 -4 32 13q15 12 27 23.5t24 25.5q8 9 0 16q-6 5 -12 -1q-5 -6 -8 -10q-15 -20 -48 -49zM731 639q9 -3 18 -8q4 -3 6 -3q10 -4 14 3q5 9 -7.5 16t-23.5 8q-8 0 -11 -5
q-4 -8 4 -11zM715 675q-11 -12 -11 -11q-11 -11 -5 -19q7 -7 17 5l6 5q5 8 26 30q4 4 16 6q6 1 6 3q1 0 1 3q1 9 6 14q6 6 0 12q-6 4 -9 1q-3 -2 -5 -1q-10 -2 -14 6q-1 1 -1 2q-3 4 -7 1q-6 -3 -3 -14q1 -6 1 -10q0 -8 -13 -21zM794 684q-18 8 -21 7q-3 -3 7 -13l2 -2
q6 -8 21 -23q11 -17 -14 -21q-8 -3 -7 -10q2 -11 14 -9q43 13 28 43q-10 15 -30 28zM689 584q6 -7 11 -1q3 2 5 3q2 4 5 5q1 -1 5 -1q6 0 7 2q3 5 1 15q-1 3 -2 7t-2 5q-6 5 -22 -12q-17 -16 -8 -23zM769 559q3 4 3 7q-1 3 -10 4l-2 1q-6 0 -13 7q-5 3 -10 7q-10 6 -12 4
q-4 -3 6 -19l2 -1q11 -16 11 -25q0 -5 1 -8q2 -11 8 -11q8 2 12 11q-1 13 3 20q0 1 1 3z" />
    <glyph glyph-name="uniE60F" unicode="&#xe60f;" 
d="M111 -62v37h802v-37h-802zM689 -6h-93v479l-112 80l-261 -112v-447h-112v37h75v429l298 131l149 -112v-448h56v-37zM278 383l131 58v-74l-130 -56zM409 274v-75l-130 -37l-1 70zM279 87l130 37v-93h-130v56zM726 740v-746h56v680zM484 497v-503h56v466zM913 -6h-93v690
l-94 112l-354 -150v-55l-37 -38v112l410 168l112 -149v-653h56v-37z" />
    <glyph glyph-name="uniE610" unicode="&#xe610;" 
d="M516 97l-416 458l79 87l337 -370l337 370l79 -87z" />
    <glyph glyph-name="uniE611" unicode="&#xe611;" 
d="M400 -73q-18 0 -25 14q-13 29 -73 122q-33 51 -79 147q-36 77 -57 108q-24 38 -2 72q12 19 35.5 30.5t51.5 11.5q30 0 63 -19v225q0 14 4.5 28t14.5 28.5t28.5 23.5t43.5 9q40 0 63 -23q27 -26 24 -66v-99q18 6 42 6q55 -1 80 -30q5 -6 9 -13q21 8 49 7q40 -3 62 -28
q10 -10 16 -25q22 9 49 4q30 -6 48 -26.5t23 -40.5t3 -38v-95q-1 -31 -6 -61.5t-13 -56t-17.5 -49.5t-20 -43.5t-20.5 -36.5t-19.5 -30t-16.5 -21.5t-12 -13.5l-5 -6q-1 -4 -4 -7q-9 -9 -22 -8h-317zM251 376q-30 0 -42 -17q-6 -11 3 -25q36 -56 60 -106q44 -93 75 -141
q17 -26 33 -49.5t24 -36t12 -19.5h296q1 2 8.5 8.5t16.5 19.5t21 36t27 68t30 106q6 27 7.5 59t-0.5 51l-2 19q0 1 1 2q-1 1 -0.5 5.5t-1 12.5t-4.5 15.5t-10 14t-18 8.5q-4 1 -8 1q-17 0 -24 -24l-3 -13q-4 -15 -30 -11q-10 1 -16 8.5t-6 16.5h1l2 6q5 36 -9 52
q-8 9 -26 10t-27 -4t-11 -22l1 -14q0 -10 -6.5 -17t-17 -8t-18.5 4.5t-10 14.5q-3 11 -2 22l-1 14q0 4 1 7v8q4 10 -5 20.5t-37 11.5q-37 0 -43 -30v-39q0 -9 -6.5 -16t-16.5 -8q-11 -1 -22 5t-13 15q-6 28 -2 55l-1 157v3q1 20 -9 32q-6 8 -16 8q-11 0 -18 -3.5t-9.5 -10
t-3.5 -12t-1 -10.5l1 -6l-1 -280q0 -8 -11 -14.5t-22 -8.5q-25 -4 -29 7q-19 42 -61 42v0zM401.5 839q-78.5 0 -134 -45t-55.5 -108.5t56 -108.5v87q-3 11 -3 22q0 45 40 77.5t96.5 32.5t96.5 -32.5t40 -77.5q0 -17 -6 -34v-78q59 46 59 112q0 63 -55.5 108t-134 45z" />
    <glyph glyph-name="uniE612" unicode="&#xe612;" 
d="M292 478h-179h-1q-14 0 -23.5 -10t-9.5 -24v-472v-1q0 -14 9.5 -24t23.5 -10h179h1q14 0 23.5 10t9.5 24v472v1q0 14 -9.5 24t-23.5 10zM286 -21h-168v457h168v-457zM601 831h-179h-1q-14 0 -23.5 -10t-9.5 -25v-824v-1q0 -14 10 -24t23 -10h179h1q14 0 24 10t10 24v824
v1q0 15 -10 25t-24 10zM593 -25h-163v817h163v-817zM911 647h-179h-1q-14 0 -24 -10t-10 -24v-641v-1q0 -14 10 -24t24 -10h179h1q13 0 23 10t10 24v641v1q0 14 -10 24t-23 10zM904 -26h-167v635h167v-635z" />
    <glyph glyph-name="uniE613" unicode="&#xe613;" 
d="M695 488l-183 -182l-183 182l-52 -52l183 -182v-1l52 -50l52 50v1l183 182zM512 880q-205 0 -350.5 -145.5t-145.5 -350.5t145.5 -350.5t350.5 -145.5t350.5 145.5t145.5 350.5t-145.5 350.5t-350.5 145.5zM512 -60q-90 0 -172.5 35t-142 94.5t-94.5 142t-35 172.5
t35 172.5t94.5 141.5t142 94.5t172.5 35.5t172.5 -35.5t142 -94.5t94.5 -141.5t35 -172.5t-35 -172.5t-94.5 -142t-142 -94.5t-172.5 -35z" />
    <glyph glyph-name="uniE614" unicode="&#xe614;" horiz-adv-x="1340" 
d="M680 489q-99 0 -169 -70t-70 -168.5t70 -169t168.5 -70.5t168.5 70.5t70 169t-70 168.5t-168 70zM280 788h-139v-60h139v60zM1252 668h-260q-32 19 -66 84q-11 24 -41.5 38t-54.5 15l-24 2h-302h-4q-2 0 -9.5 -2t-15 -6.5t-18.5 -17t-22 -29.5q-32 -57 -68 -84h-260
q-35 0 -59.5 -26t-24.5 -64v-695q0 -38 24.5 -64t59.5 -26h1142q36 0 60 26t24 64v695q2 37 -22.5 63.5t-58.5 26.5zM680 -49q-125 0 -212.5 87.5t-87.5 211.5t87.5 211.5t212 87.5t212 -87.5t87.5 -211.5q0 -123 -88.5 -211t-210.5 -88zM1108 489q-21 0 -35.5 14.5
t-14.5 35.5q0 20 14 35t36 15q20 0 34.5 -14.5t14.5 -35.5q-2 -22 -16 -36t-33 -14z" />
    <glyph glyph-name="uniE615" unicode="&#xe615;" 
d="M512 879q-101 0 -192.5 -39t-158 -105.5t-105.5 -158t-39 -192.5t39 -192.5t105.5 -158t158 -105.5t192.5 -39t192.5 39t158 105.5t105.5 158t39 192.5t-39 192.5t-105.5 158t-158 105.5t-192.5 39zM573 74h-118v118h118v-118zM711 444q-23 -35 -95 -95q-37 -30 -46 -49
t-8 -68h-107v28q0 52 17 86q17 33 68 75q51 41 62 55q16 20 16 45q0 35 -27.5 59.5t-74.5 24.5q-44 0 -75 -26q-30 -25 -41 -78l-108 14q4 75 64 127q59 52 155 52q102 0 162 -53q59 -52 59 -123q0 -39 -21 -74z" />
    <glyph glyph-name="uniE616" unicode="&#xe616;" 
d="M896 632q-1 1 -1.5 1t-1 0.5t-4.5 2.5q-5 2 -7 3h-1q-17 7 -35 9h-2h-1q-7 1 -10 1h-149v45q0 15 -10.5 25.5t-25.5 10.5h-272q-15 0 -25.5 -10.5t-10.5 -25.5v-45h-149q-52 0 -89.5 -37t-37.5 -90v-275v-250q0 -35 17.5 -64.5t46.5 -46.5q1 0 1.5 -0.5t1 -0.5t1.5 -0.5
t2 -1.5q21 -10 44 -13h2h1h10h401h241q52 0 89.5 37t37.5 90v275v250q0 35 -17.5 64.5t-46.5 45.5zM412 638q0 4 5.5 7.5t13.5 3.5h162q8 0 13.5 -3.5t5.5 -7.5v-20q0 -4 -5.5 -7.5t-13.5 -3.5h-162q-8 0 -13.5 3.5t-5.5 7.5v20zM396 520q61 0 104 -43t43 -104t-43 -104
t-104 -43t-104 43t-43 104t43 104t104 43zM168 -2q0 95 66.5 161.5t161.5 66.5h2q94 0 161 -66.5t67 -161.5h-458zM861 297h-188q-8 0 -13.5 5.5t-5.5 13.5t5.5 14t13.5 6h188q8 0 14 -6t6 -14t-6 -13.5t-14 -5.5zM861 420h-188q-8 0 -13.5 5.5t-5.5 14t5.5 14t13.5 5.5h188
q8 0 14 -5.5t6 -14t-6 -14t-14 -5.5z" />
    <glyph glyph-name="uniE617" unicode="&#xe617;" 
d="M201 264h19q16 0 27 11t11 27v39q0 16 -11 27t-27 11h-19q-16 0 -27.5 -11t-11.5 -27v-41q0 -15 11.5 -25.5t27.5 -10.5zM783 703h-514q-32 0 -54.5 -22.5t-22.5 -54.5v-25q13 6 30 6q32 0 54.5 -22.5t22.5 -54.5v-422q0 -32 -22.5 -54.5t-54.5 -22.5q-14 0 -30 7v-45
q0 -32 22.5 -54.5t54.5 -22.5h514q32 0 54.5 22.5t22.5 54.5v633q0 32 -22.5 54.5t-54.5 22.5zM572 125v0q-40 0 -73 4.5t-52 11t-33 13.5t-19 11l-5 5q2 1 0.5 9t2 23.5t9 31.5t20.5 34t37 30l57 23q9 9 9 20v8q-19 13 -30 38q-13 0 -15.5 24t4.5 28q-11 102 86 102v0v0
q25 0 42.5 -7t25.5 -18.5t13 -25t4.5 -27t-0.5 -24.5q8 -4 5 -28t-16 -24q-9 -24 -30 -38v-8q1 -5 4 -10l3 -7l2 -3l58 -23q68 -38 68 -128l-5 -5q-3 -3 -17 -10.5t-32 -13.5t-51 -11t-72 -5zM759 125q-2 -2 -10 -6q-2 -1 -5.5 -3.5t-5.5 -3.5q2 2 11 7q2 2 10 6l5 2
q-5 0 -5 -2zM201 434h19q16 0 27 11.5t11 27.5v38q0 16 -11 27.5t-27 11.5h-19q-16 0 -27.5 -11.5t-11.5 -27.5v-38q0 -16 11.5 -27.5t27.5 -11.5zM220 91q16 0 27 11t11 27v39q0 16 -11 27t-27 11h-19q-16 0 -27.5 -11t-11.5 -27v-39q0 -16 11.5 -27t27.5 -11h19z" />
    <glyph glyph-name="uniE618" unicode="&#xe618;" 
d="M444 425l233 233q22 22 22 53.5t-22 53.5q-23 22 -54.5 22t-53.5 -22l-288 -288q-21 -22 -21 -53t22 -53l287 -287q22 -22 53.5 -22t53.5 22q23 23 23 54t-23 54z" />
    <glyph glyph-name="uniE619" unicode="&#xe619;" 
d="M995 504h-362v359h-241v-359h-362v-240h362v-360h241v360h362v240z" />
    <glyph glyph-name="uniE61A" unicode="&#xe61a;" horiz-adv-x="1028" 
d="M989 350q12 12 12 31v1q0 19 -12 31l-336 338q-14 13 -33 13q-17 0 -29 -11q-21 -21 -7 -49l86 -86l12 -12l183 -184h-801q-17 0 -29 -12t-12 -28.5t12 -28.5t29 -12h801l-274 -275q-9 -13 -8 -28t12 -26q12 -12 28.5 -12t28.5 12l47 46z" />
    <glyph glyph-name="uniE61B" unicode="&#xe61b;" 
d="M767 575q0 101 -71 173t-171.5 72t-171.5 -72t-71 -173t71 -173t171.5 -72t171.5 72t71 173zM524 190l-107 79q-129 -26 -207.5 -110.5t-78.5 -195.5h787q0 111 -78.5 195.5t-207.5 110.5z" />
    <glyph glyph-name="uniE61C" unicode="&#xe61c;" 
d="M539 67q-16 0 -33.5 3t-38.5 7t-32 5q-38 -48 -89 -79.5t-92 -43t-85 -15t-59.5 -2.5t-24.5 3q43 20 73 47t43 52t17.5 48t0.5 38.5t-12 20.5q-90 52 -140 129t-50 166q0 103 69 190.5t189 138.5t264 51q106 0 195 -30t148.5 -81.5t92 -121t32.5 -148t-32.5 -147.5
t-92 -120.5t-148.5 -81t-195 -29.5zM280.5 531q-38.5 0 -66 -27t-27.5 -65.5t27.5 -66t66 -27.5t65.5 27.5t27 66t-27 65.5t-65.5 27zM512.5 531q-38.5 0 -65.5 -27t-27 -65.5t27 -66t65.5 -27.5t65.5 27.5t27 66t-27 65.5t-65.5 27zM744.5 531q-38.5 0 -66 -27t-27.5 -65.5
t27.5 -66t66 -27.5t65.5 27.5t27 66t-27 65.5t-65.5 27z" />
    <glyph glyph-name="uniE61D" unicode="&#xe61d;" horiz-adv-x="1000" 
d="M676 471q16 0 34 -2q-23 106 -123.5 176t-229.5 70q-95 0 -175.5 -39.5t-127.5 -108t-47 -150.5q0 -138 140 -236l-35 -106l122 62q89 -18 123 -18q15 0 33 2q-11 37 -11 73q0 115 86.5 196t210.5 81zM485.5 573q22.5 0 38.5 -16t16 -38.5t-16 -38t-38.5 -15.5t-38 15.5
t-15.5 38t15.5 38.5t38 16zM240.5 464q-22.5 0 -38 15.5t-15.5 38t15.5 38.5t38 16t38.5 -16t16 -38.5t-16 -38t-38.5 -15.5zM994 197q0 68 -41.5 127t-110 93t-146.5 34q-124 0 -211 -74.5t-87 -179.5t87 -179.5t211 -74.5q35 0 105 18l96 -53l-26 87q123 92 123 202z
M605 236q-16 0 -27.5 11.5t-11.5 27.5t11.5 27t27.5 11t27 -11t11 -27t-11 -27.5t-27 -11.5zM797 234q-16 0 -27 11.5t-11 27.5t11 27t27 11t27.5 -11t11.5 -27t-11.5 -27.5t-27.5 -11.5z" />
    <glyph glyph-name="uniE61E" unicode="&#xe61e;" 
d="M922 761h-820q-42 0 -72 -30t-30 -73v-563q0 -42 30 -72t72 -30h52v-154l192 154h576q42 0 72 30t30 72v563q0 43 -30 73t-72 30zM819 216h-614v85h614v-85zM819 440h-614v84h614v-84z" />
    <glyph glyph-name="uniE61F" unicode="&#xe61f;" 
d="M610 823q49 0 88.5 -17t63.5 -43.5t39.5 -61.5t21.5 -67t6 -64q0 -125 -74 -192v-24q0 -8 56 -51t125 -94t88 -68v0v-1v-1v-1v-1v-1v-1v-1v-1v-1v-1v-1v-1v-1v-1v-1v-1v-1v-1v-1v-2v-1v-1v-1v-1v-2v-1v-1v-2v-1v-2v-1v-1v-2v-1v-2v-1v-2v-1v-2v-1v-2v-2v-1v-2v-2v-1v-2
v-2v-1v-2v-2v-2v-2v-1v-2v-2v-2v-8h-146q-80 64 -148 109.5t-102 65t-43 28.5v24q25 22 39 38t29.5 41.5t22.5 59t7 77.5q0 50 -9.5 96t-30.5 90.5t-61 75t-94 39.5q40 24 122 24zM0 -55v98q31 33 73 65.5t79 55t69.5 42t51.5 32.5t20 20v24q-44 40 -71 89.5t-27 102.5
q0 37 5.5 72t20.5 71.5t38 63t62 43.5t89 17q200 0 200 -267q0 -53 -27 -103t-71 -89v-24q0 -10 61 -47t134.5 -86t97.5 -82v-98h-805z" />
    <glyph glyph-name="uniE620" unicode="&#xe620;" horiz-adv-x="1025" 
d="M1022 78q-6 18 -20.5 30.5t-27.5 18.5t-37.5 14.5t-35.5 13.5q-14 6 -72 30.5t-88 37.5q-7 2 -22 6t-22 6q-15 10 -44 72q-3 0 -13 1.5t-15 2.5q1 17 13 32t15 24q3 8 4 32t7 35q4 7 16 13.5t16 11.5q10 13 15 41q9 52 -3 78q-2 4 -5.5 10t-5 10t-2.5 11q-1 12 3 54t4 43
q0 26 -1 36t-8 38q-11 31 -27 41l-33 5l-20 19q-29 18 -60 24t-63 0t-49.5 -12t-43.5 -16q-55 -18 -78.5 -74t-2.5 -156q3 -13 -4.5 -28t-7.5 -20q0 -1 1.5 -20t3 -28.5t4.5 -25.5t8.5 -26t13.5 -15q1 -1 6.5 -2.5t10.5 -1.5l4 -1q2 -15 4.5 -44t3.5 -40q3 -7 14 -19.5
t14 -27.5l-21 -5q-29 -62 -44 -72q-8 -2 -22.5 -6.5t-21.5 -5.5q-30 -13 -87.5 -37.5t-72.5 -30.5q-10 -5 -35 -13.5t-37.5 -14.5t-27.5 -18.5t-21 -30.5q0 -10 -1 -70.5t-1 -85.5h450l33 225l-28 58l63 31l54 -30l-30 -60l52 -224h430q0 25 -1 85.5t-1 70.5z" />
    <glyph glyph-name="uniE621" unicode="&#xe621;" 
d="M481 490h-129v-95h129v95zM672 490h-128v-95h128v95zM864 490h-129v-95h129v95zM290 309h-129v-96h129v96zM481 309h-129v-96h129v96zM672 309h-128v-96h128v96zM864 309h-129v-96h129v96zM290 128h-129v-96h129v96zM481 128h-129v-96h129v96zM672 128h-128v-96h128v96z
M864 128h-129v-96h129v96zM989 769v1h-1q-42 54 -110 54h-28v-79q-2 -26 -21.5 -44.5t-46 -18.5t-46 18.5t-21.5 44.5v79h-406v-79q-2 -26 -21.5 -44.5t-46 -18.5t-46 18.5t-21.5 44.5v79h-28q-68 0 -110 -54h-1v-1q-29 -38 -29 -85v-667q0 -58 41 -99t99 -41h732
q58 0 99 41t41 99v667q0 47 -29 85zM961 17q0 -35 -24 -59t-59 -24h-732q-35 0 -59 24t-24 59v565h898v-565zM242 720q14 0 24 10t11 24v100q0 14 -10.5 24.5t-25 10.5t-24.5 -10.5t-11 -24.5v-100q1 -14 11.5 -24t24.5 -10zM784 720q14 0 24.5 10t10.5 24h1v100h-1
q0 14 -10 24.5t-24.5 10.5t-25 -10.5t-10.5 -24.5v-100q1 -14 11 -24t24 -10z" />
    <glyph glyph-name="uniE622" unicode="&#xe622;" 
d="M510 673q-117 0 -199.5 -81t-82.5 -195.5t82.5 -195.5t199.5 -81t200 81t83 195.5t-83 195.5t-200 81zM184 291v255q-5 0 -10 -1q44 96 134.5 155t201.5 59t202 -59t135 -155q-5 1 -11 1v-255q54 0 92.5 37t38.5 90q0 36 -18 65.5t-49 46.5q-43 120 -149.5 195.5
t-240 75.5t-240.5 -75.5t-149 -195.5q-31 -17 -49 -46.5t-18 -65.5q0 -53 38 -90t92 -37zM792 144q-56 -51 -128.5 -79.5t-153 -28.5t-153 28t-128.5 80q-102 -52 -160.5 -140.5t-58.5 -205.5h1004q0 118 -59 206.5t-163 139.5z" />
    <glyph glyph-name="uniE623" unicode="&#xe623;" 
d="M960 428v320h-320l126 -126l-137 -137q-94 71 -213 71q-146 0 -249 -103t-103 -249t103 -249t249 -103t249 103t103 249q0 119 -71 213l137 137zM597 23q-75 -75 -181 -75t-181 75t-75 181t75 181t181 75t181 -75t75 -181t-75 -181z" />
    <glyph glyph-name="uniE624" unicode="&#xe624;" 
d="M778 299l-421 -442l-98 107l324 339l-337 331l104 109z" />
    <glyph glyph-name="uniE625" unicode="&#xe625;" 
d="M903 212q-107 -104 -253 -114t-266 79l-85 -85l119 -120q17 -12 18 -34.5t-12 -39.5l-6 -6q-13 -17 -34.5 -19.5t-39.5 14.5l-6 5l-119 120l-80 -80q-18 -18 -40 -20t-40 14l-6 6q-16 13 -17.5 35.5t12.5 38.5l5 6l86 80l-120 120q-17 12 -18 34.5t12 39.5l6 6
q13 16 35 17.5t39 -12.5l6 -5l120 -120l85 85q-64 87 -76.5 193t28.5 204t128 162q87 65 193 77.5t204 -29t162 -127.5q90 -120 78.5 -269t-118.5 -256v0zM823 697q-85 85 -202 85t-202.5 -85.5t-85.5 -202.5t85.5 -202.5t202.5 -85.5t202 86q86 85 86 204t-86 201v0z" />
    <glyph glyph-name="uniE626" unicode="&#xe626;" horiz-adv-x="1025" 
d="M507 81l67 66l-87 87l-66 -66v-32h54v-55h32zM759 492q-9 9 -19 0l-200 -200q-10 -10 -0.5 -19t18.5 0l200 200q10 10 1 19zM805 153v-109q0 -68 -48.5 -116t-116.5 -48h-475q-68 0 -116.5 48t-48.5 116v476q0 68 48.5 116t116.5 48h475q36 0 67 -14q8 -4 10 -13
q2 -10 -5 -17l-28 -28q-8 -8 -18 -4q-13 3 -26 3h-475q-38 0 -65 -27t-27 -64v-476q0 -38 27 -64.5t65 -26.5h475q38 0 64.5 26.5t26.5 64.5v72q0 8 6 13l36 36q9 9 20.5 4.5t11.5 -16.5zM750 574l164 -164l-384 -384h-164v164zM1003 499l-52 -53l-165 165l53 53
q16 16 39 16t39 -16l86 -87q16 -16 16 -39t-16 -39z" />
    <glyph glyph-name="uniE627" unicode="&#xe627;" 
d="M508 743q-17 0 -27 -11q-10 -10 -15 -24l-103 -236l-275 -25q-10 -2 -17 -9q-9 -7 -10.5 -19t5.5 -25q8 -11 19 -21l10 -9l22 -19q22 -19 31 -26l36 -30q30 -26 94 -80l-30 -124q-6 -22 -12 -47q-7 -27 -11 -42q-4 -20 -8 -32l-4 -17q-2 -8 1.5 -15.5t11.5 -13.5
q7 -5 17 -6q2 -1 4 -1q7 0 14 4q5 2 17 9q11 5 31 17q10 6 40 23q27 16 44 25q46 26 115 66l232 -134l13 -5q8 -3 13 -3q13 0 24 6t8 23q-1 3 -4 17l-6 33q-5 22 -9 44q-4 20 -10 47q-15 72 -26 127l184 164q12 14 19 22q8 9 8 22t-7 19q-8 6 -25 11l-276 25l-99 237
q-2 3 -5 9q-4 6 -8 10q-4 6 -11 10t-15 4z" />
    <glyph glyph-name="uniE628" unicode="&#xe628;" 
d="M482 583q0 14 9.5 23.5t23.5 9.5q13 0 22.5 -9.5t9.5 -23.5v-495q0 -13 -9.5 -22.5t-22.5 -9.5q-14 0 -23.5 9.5t-9.5 22.5v495zM328 583q0 14 10 23.5t23 9.5q14 0 23.5 -9.5t9.5 -23.5v-495q0 -13 -9.5 -22.5t-23.5 -9.5q-13 0 -23 9.5t-10 22.5v495zM636 583
q0 14 9.5 23.5t22.5 9.5q14 0 23.5 -9.5t9.5 -23.5v-495q0 -13 -9.5 -22.5t-23.5 -9.5q-13 0 -22.5 9.5t-9.5 22.5v495zM906 744h-175v41q0 24 -19 40.5t-46 16.5h-302q-28 0 -46.5 -16.5t-18.5 -40.5v-41h-181q-14 0 -23.5 -9.5t-9.5 -23t9.5 -23.5t23.5 -10h68v-688
q0 -26 19.5 -45t46.5 -19h526q27 0 46 19t19 45v688h63q14 0 23.5 10t9.5 23.5t-9.5 23t-23.5 9.5zM364 776h302v-32h-302v32zM744 -8q-423 -2 -458 -2q-10 0 -17.5 4t-10.5 9.5t-4.5 10.5t-1.5 9v4v620q0 17 8 25t16 7l8 -1h455q2 1 4.5 0.5t9 -1.5t12 -4t9.5 -9.5t4 -16.5
v-312v-311q0 -14 -8.5 -22t-17.5 -9l-8 -1v0z" />
    <glyph glyph-name="uniE629" unicode="&#xe629;" 
d="M873 829h-611q-35 0 -59 -24.5t-24 -59.5v-55h-28q-35 0 -59.5 -24.5t-24.5 -59.5v-556q0 -46 32.5 -78.5t79.5 -32.5h666q47 0 79.5 32.5t32.5 78.5v695q0 35 -24.5 59.5t-59.5 24.5zM901 50q0 -22 -16.5 -38.5t-39.5 -16.5h-666q-23 0 -39.5 16.5t-16.5 38.5v556
q0 12 8 20t20 8h28v-556q0 -11 8 -19.5t19.5 -8.5t19.5 8.5t8 19.5v667q0 12 8 20t20 8h611q12 0 20 -8t8 -20v-695zM832 495h-223q-6 0 -10 -4t-4 -10t4 -10t10 -4h223q5 0 9 4t4 10t-4 10t-9 4zM832 578h-223q-6 0 -10 -4t-4 -9.5t4 -9.5t10 -4h223q5 0 9 4t4 9.5t-4 9.5
t-9 4zM832 662h-223q-6 0 -10 -4t-4 -10t4 -10t10 -4h223q5 0 9 4t4 10t-4 10t-9 4zM526 78h-222q-6 0 -10 -4t-4 -9.5t4 -10t10 -4.5h222q6 0 10 4.5t4 10t-4 9.5t-10 4zM526 162h-222q-6 0 -10 -4.5t-4 -10t4 -9.5t10 -4h222q6 0 10 4t4 9.5t-4 10t-10 4.5zM526 245h-222
q-6 0 -10 -4t-4 -10t4 -10t10 -4h222q6 0 10 4t4 10t-4 10t-10 4zM832 78h-223q-5 0 -9.5 -4t-4.5 -9.5t4.5 -10t9.5 -4.5h223q5 0 9 4.5t4 10t-4 9.5t-9 4zM832 162h-223q-5 0 -9.5 -4.5t-4.5 -10t4.5 -9.5t9.5 -4h223q5 0 9 4t4 9.5t-4 10t-9 4.5zM832 245h-223
q-5 0 -9.5 -4t-4.5 -10t4.5 -10t9.5 -4h223q5 0 9 4t4 10t-4 10t-9 4zM832 412h-528q-6 0 -10 -4t-4 -10t4 -10t10 -4h528q5 0 9 4t4 10t-4 10t-9 4zM832 328h-528q-6 0 -10 -4t-4 -9.5t4 -9.5t10 -4h528q5 0 9 4t4 9.5t-4 9.5t-9 4zM318 467h194q12 0 20 8.5t8 19.5v195
q0 11 -8 19t-20 8h-194q-12 0 -20 -8t-8 -19v-195q0 -11 8 -19.5t20 -8.5zM345 662h139v-139h-139v139z" />
    <glyph glyph-name="uniE62A" unicode="&#xe62a;" 
d="M494 751l-276 -169h-87q-27 0 -47 -19.5t-20 -47.5v-253q0 -28 20 -47.5t47 -19.5h87l276 -169q14 0 23.5 10t9.5 24v657q0 14 -9.5 24t-23.5 10zM494 751zM800 43q-11 0 -19.5 8.5t-8.5 20t9 19.5q80 81 108.5 189t0 216.5t-108.5 188.5q-9 9 -9 20.5t8.5 19.5t20 8
t19.5 -8q69 -68 104.5 -157t35.5 -179.5t-35.5 -179.5t-104.5 -157q-8 -9 -20 -9zM800 43zM674 207q-12 0 -20 8t-8 20t8 20q55 55 55 133.5t-55 133.5q-8 8 -8 19.5t8 20t19.5 8.5t20.5 -9q71 -71 71 -172.5t-71 -173.5q-9 -8 -20 -8zM674 207z" />
    <glyph glyph-name="uniE62B" unicode="&#xe62b;" 
d="M575 308l-69 -189l115 -114l-16 -43l-198 98l-215 53l16 43l161 13l68 190l-305 91l26 72l309 18l36 2l82 227q8 24 34.5 33.5t55 -1t42.5 -35t5 -48.5l-81 -227l26 -25l225 -214l-26 -72z" />
    <glyph glyph-name="uniE62C" unicode="&#xe62c;" 
d="M807 744l-141 -311h-40l149 330h-231v-771q21 -1 94 -21t135 -39l62 -20v-40h-653v42q243 78 280 78v771h-218l149 -330h-40l-141 311l-140 -311h-41l151 333v39h2h249q0 37 21.5 64t51.5 27q31 0 52 -27.5t21 -63.5h256v-33l153 -339h-41zM396 390q0 -79 -50.5 -135
t-133.5 -56q-81 0 -132 56.5t-51 134.5h91h184h92zM628 390h184h183q0 -79 -50.5 -135t-132.5 -56q-81 0 -132.5 56.5t-51.5 134.5z" />
    <glyph glyph-name="uniE62D" unicode="&#xe62d;" 
d="M593 637.5q0 -77.5 -57 -132.5t-137.5 -55t-137 55t-56.5 132.5t56.5 132.5t137 55t137.5 -55t57 -132.5zM978 61q0 -30 -21 -50t-56 -20q-7 0 -26 -0.5t-33.5 -0.5t-23.5 2q-20 4 -25 24.5t-1.5 46t-2.5 52.5q-9 45 -33 86.5t-53.5 70t-50.5 45.5t-37 26q4 4 13 10.5
t39 14t65 1.5q1 0 7 -2q16 -3 21 -4q91 -26 154.5 -117t63.5 -185zM734 -16q-1 -76 -70 -76h-179h-215h-137q-24 0 -39.5 6.5t-21.5 19t-7.5 22.5t-1.5 28q0 130 68 236t172 139q34 13 95 13q18 0 34 -1t26.5 -3t18 -4t11.5 -3l3 -2q104 -34 174 -140.5t69 -234.5zM585 432
q-19 13 -24.5 19.5t-2 11t13.5 12.5t22 19t24.5 35.5t18.5 57.5q13 67 -2 120q-2 8 -3 12.5t-1.5 12t1.5 10t5.5 6.5t11.5 2.5t19 -2.5q70 -15 110 -70t27 -121q-9 -47 -53.5 -91.5t-103.5 -46.5q-14 -1 -33.5 3t-29.5 10z" />
    <glyph glyph-name="uniE62E" unicode="&#xe62e;" 
d="M541 701l224 -92q12 -5 24.5 -17.5t17.5 -24.5l93 -224q5 -12 5 -29.5t-5 -29.5l-93 -224q-5 -11 -17.5 -23.5t-24.5 -17.5l-224 -93q-11 -5 -29 -5t-29 5l-224 93q-12 5 -24.5 17.5t-17.5 23.5l-93 224q-5 12 -5 29.5t5 29.5l93 224q5 12 17.5 24.5t24.5 17.5l224 92
q11 5 29 5t29 -5zM243 646q-19 -8 -37 -26t-26 -38l-93 -223q-8 -20 -8 -45.5t8 -44.5l93 -224q8 -19 26 -37t37 -26l224 -93q19 -8 45 -8t45 8l224 93q19 8 37 26t26 37l93 224q8 19 8 44.5t-8 45.5l-93 223q-8 20 -26 38t-37 26l-224 93q-19 7 -45 7t-45 -7zM208 846
l3 -10q0 8 6 14t14 6h562q8 0 14 -6t6 -14l3 10l-60 -100q-4 -7 -2 -15.5t9 -12.5t15 -2t12 9l60 100q3 5 3 11q0 25 -17.5 42.5t-42.5 17.5h-562q-25 0 -42.5 -17.5t-17.5 -42.5q0 -6 3 -11l60 -100q4 -7 12 -9t15 2t9 12.5t-2 15.5zM405 136q-3 -2 -5 -2q2 0 3.5 -1
t2.5 -3q-1 2 0 6l20 118l2 10l-8 8l-86 84q-2 2 -3 4q1 -2 0 -4t-2 -3q2 1 5 2l119 17l10 2l5 9l53 108q2 3 3 4q-1 -1 -3 -1t-3 1q1 -1 3 -4l53 -108l4 -9l11 -2l119 -17q3 -1 5 -2q-1 1 -2 3.5t0 3.5q-1 -2 -4 -4l-85 -84l-8 -8l2 -10l20 -118q1 -4 0 -6q1 2 2.5 3t3.5 1
q-2 0 -5 2l-107 56l-9 5l-9 -5zM512 156l106 -55q25 -14 44 -0.5t14 41.5l-21 119l-5 -18l86 84q20 20 13 42t-36 26l-118 17l15 -11l-53 108q-13 26 -36 26t-36 -26l-53 -108l15 11l-119 -17q-28 -4 -35 -26t13 -42l86 -84l-5 18l-21 -119q-5 -28 13.5 -41.5t44.5 0.5
l106 55h-18z" />
    <glyph glyph-name="uniE62F" unicode="&#xe62f;" 
d="M921 215q-9 -62 -40 -113q-32 -52 -85 -88q-67 -46 -160 -64q-73 -15 -155 -11q-107 4 -191 40q-85 37 -134 103q-38 51 -50 116q-7 37 -5 71q2 40 20 89q36 95 108 177q44 50 97 85q0 1 2 2l1 1q-11 17 -11 18q-17 27 -20 53q-7 61 40 95q30 22 79 32t112 9
q53 -2 92 -12q50 -13 76 -39q36 -35 29 -87q-4 -30 -26 -61q-5 -7 -5 -8l1 -1t2 -1q100 -69 167 -184q31 -53 48 -108q16 -56 8 -114zM854 278q-5 44 -31 98q-42 83 -107 146q-63 60 -132 82l-3 1l3 2q31 16 55 43q16 19 22 38q7 26 -13 44q-19 16 -53 22q-78 15 -161 1
q-32 -5 -53 -19q-27 -19 -17 -49q3 -10 8 -18q22 -36 65 -60q1 -1 6 -4l-7 -2q-49 -23 -53 -24q-64 -37 -119 -105q-52 -65 -78 -135q-14 -37 -17 -66q-2 -22 3 -52q7 -48 32 -87q37 -56 106 -88q70 -33 165 -38q60 -3 115 4q72 9 127 35q49 24 81 59q45 48 55 116
q4 31 1 56zM604 328h-9h-55v-30h5h51q25 0 28 -25q2 -11 -5.5 -20t-18.5 -9q-5 -1 -53 -1h-7v-2v-3q-1 -46 -1 -50q0 -10 -7.5 -17t-18.5 -8q-9 0 -17.5 6t-10.5 16q-1 3 -1 9v49h-5h-59q-11 1 -18 8.5t-7 18.5q-1 10 5.5 17.5t16.5 9.5q3 1 9 1h58v30h-4h-54q-21 0 -27 18
q-5 14 3.5 25t23.5 12h31h6l-4 4l-37 37q-19 19 -2 38q7 8 18 9.5t19 -5.5q4 -3 26 -26q8 -7 29 -29l51 51q16 16 35 6q11 -6 13.5 -18.5t-6.5 -22.5q-1 -1 -39 -40l-4 -4h6q34 -1 35 -1q10 -1 17 -8.5t7 -17.5t-6.5 -18t-16.5 -10z" />
    <glyph glyph-name="uniE630" unicode="&#xe630;" 
d="M1024 -119q0 -26 -9.5 -45t-23.5 -28t-27.5 -14t-23.5 -5l-9 -1l-266 266q-111 -80 -246 -80q-114 0 -210.5 56t-152.5 152.5t-56 210.5t56 210.5t152.5 152.5t210.5 56t210.5 -56t152.5 -152.5t56 -210.5q0 -135 -80 -246zM418.5 719q-88.5 0 -163.5 -43.5
t-118.5 -118.5t-43.5 -163.5t43.5 -164t118.5 -119t163.5 -43.5t164 43.5t119 119t43.5 164t-43.5 163.5t-119 118.5t-164 43.5z" />
    <glyph glyph-name="uniE631" unicode="&#xe631;" 
d="M527 -47q-91 0 -174 35.5t-143 95.5t-95.5 143t-35.5 174t35.5 174t95.5 143t143 95.5t174 35.5t174 -35.5t143 -95.5t95.5 -143t35.5 -174t-35.5 -174t-95.5 -143t-143 -95.5t-174 -35.5zM527 768q-100 0 -184 -49.5t-133.5 -133.5t-49.5 -184t49.5 -184t133.5 -133
t184 -49t184 49t133.5 133t49.5 184t-49.5 184t-133.5 133.5t-184 49.5zM717 360h-163h-54q-6 0 -10 4t-4 10v54v217q0 6 4 10t10 4h54q6 0 10 -4t4 -10v-203h149q6 0 10 -4t4 -10v-54q0 -6 -4 -10t-10 -4z" />
    <glyph glyph-name="uniE632" unicode="&#xe632;" 
d="M453 793l-389 -338l389 -337v227l66 16q203 38 303 -49q109 -96 61 -337q5 9 12 23.5t23.5 59.5t26.5 88t14 101t-6.5 107t-44.5 97.5t-89.5 81t-151 49.5t-221.5 10zM453 793z" />
  </font>
</defs>
</svg>
